<svg id="Layer_1" data-name="Layer 1" xmlns="http://www.w3.org/2000/svg" viewBox="0 0 20 16"><defs><style>.cls-1{fill:#55557b;}</style></defs><path class="cls-1" d="M10,.9A7.1,7.1,0,1,0,17.1,8,7.11,7.11,0,0,0,10,.9Zm0,14A6.89,6.89,0,1,1,16.89,8,6.9,6.9,0,0,1,10,14.89Z"/><path class="cls-1" d="M10,0a8,8,0,1,0,8,8A8,8,0,0,0,10,0Zm0,15.47A7.47,7.47,0,1,1,17.47,8,7.48,7.48,0,0,1,10,15.47Z"/><path class="cls-1" d="M12.07,4.79a.52.52,0,0,1-.16.86l-.41.11c0,.24,0,.48,0,.73a9.43,9.43,0,0,1,1.67-.19c-.4-.54.27-1.65.27-1.65-.29-.12-.58-.72-.58-.72C12.75,4.27,12.07,4.79,12.07,4.79Z"/><path class="cls-1" d="M12.66,7.55a11.78,11.78,0,0,0-1.19-.48l0,0a4.62,4.62,0,0,0-.74-.19h0a.38.38,0,0,0-.17,0l.17-.09c0-.24,0-.47,0-.7a8.92,8.92,0,0,0-1.42.71,7.16,7.16,0,0,0-.74.53,4.51,4.51,0,0,0-1,1,5.29,5.29,0,0,1,.43-3.09,3.65,3.65,0,0,1-.82-.89c-.06.32-.76.89-.76.89,1.09,3.75,0,5.82,0,5.82.61.14,1,1,1,1A5.31,5.31,0,0,1,8,10.87,2.38,2.38,0,0,1,8.46,8a4.18,4.18,0,0,1,.72-.55,5.1,5.1,0,0,1,.67-.33,6.52,6.52,0,0,1,.8.17h0a4.14,4.14,0,0,1,.72.29l.05,0c2,1.11.44,3.33.44,3.33.63.18,1.13,1.11,1.13,1.11a2.22,2.22,0,0,1,.65-1.18,3,3,0,0,1,0-3.12A2.65,2.65,0,0,1,12.66,7.55Z"/><path class="cls-1" d="M12.44,12.85c-.42.77-.8-.94-.95-2.7-.05-.58-.07-1.5-.07-2.47a4,4,0,0,0-.72-.29c0,.75.05,1.53.07,2.2H9.12c0-.63,0-1.34.06-2a3.52,3.52,0,0,0-.72.56c0,.81,0,1.55-.06,2-.15,1.76-.53,3.47-1,2.7,0,0-.47-.54-.6.31,0,0,.67,1.29,1.76-.34,0,0,.48.53.8.06,0,0-.44-.12-.35-1.93,0-.28,0-.64,0-1h1.68c0,.4,0,.76,0,1,.1,1.81-.34,1.93-.34,1.93.31.47.8-.06.8-.06,1.08,1.63,1.76.34,1.76.34C12.9,12.31,12.44,12.85,12.44,12.85Z"/><path class="cls-1" d="M7.64,3.28S8,3.25,8,3c0,0,.21,0,.3.27s.13,2.11.15,4a7.67,7.67,0,0,1,.74-.52c0-.37,0-.72,0-1h1.42v.36c0,.23,0,.46,0,.7v.09a3,3,0,0,1,.74.17c0-.16,0-.31,0-.46v0c0-.24,0-.49,0-.72v0c0-1.27.09-2.32.13-2.45s.3-.27.3-.27c0,.24.36.27.36.27a.39.39,0,0,0,.36-.53c-.08-.26-.41-.37-.66-.39a.81.81,0,0,0-.7.37s-.25.36-.22.39a.59.59,0,0,0-.83,0,1.39,1.39,0,0,1,.42,1s0,.48,0,1.19H9.24c0-.71,0-1.19,0-1.19a1.45,1.45,0,0,1,.42-1,.59.59,0,0,0-.83,0s-.21-.38-.22-.4a.8.8,0,0,0-.73-.36c-.26,0-.61.17-.65.47A.39.39,0,0,0,7.64,3.28Z"/></svg>