<svg xmlns="http://www.w3.org/2000/svg" xmlns:xlink="http://www.w3.org/1999/xlink" width="3000" height="3000" viewBox="0 0 3000 3000"><defs><clipPath id="b"><rect width="3000" height="3000"/></clipPath></defs><g id="a" clip-path="url(#b)"><path d="M1903.447,2050.9l27.473,285.216L1514.662,2662l-439.283-356.414,25.281-276.274Z" fill="#fff" stroke="#55557b" stroke-miterlimit="10" stroke-width="21.37"/><path d="M1377.712,2325.85s91.588,49.865,224.9,39.688,232.212-74.288,232.212-74.288l-61.248,116.012-5.6-50.882s-6.615,44.776-55.462,92.605-203.274,183.175-203.274,183.175-137.636-137.381-176.306-202.51l-38.67-65.129,45.968,155.956L1514.662,2662l416.258-325.885-22.692-235.576Z" fill="#55557b" opacity="0.2"/><path d="M1024.082,823.3s-97.694,116.012-106.853,238.129S926.388,1267.5,934.02,1319.4s13.23,81.411,18.827,108.379,12.72,37.143,0,33.073-42.741-1.527-49.356,20.353,4.58,75.814,6.615,92.6,20.862,45.285,31.547,66.147,26.967,23.914,27.985,59.023,13.229,103.545,19.335,160.787,25.353,219.914,208.519,359.578,359.834,138.049,498.233,74.955,257.972-179.1,300.713-281.886,37.653-279.852,53.935-318.522,61.059-106.853,56.988-174.017-42.741-78.358-62.585-68.691,0-46.3,0-69.708,27.985-397.9-62.076-547.491S1573.608,621.809,1379.747,695.08,1024.082,823.3,1024.082,823.3Z" fill="#fff" stroke="#55557b" stroke-miterlimit="10" stroke-width="21.37"/><path d="M2044.776,1451.187c-19.844,9.668,0-46.3,0-69.708s27.985-397.9-62.076-547.491c-82.986-137.842-360.378-201.806-555.116-153.682-23.7,45.95-36.56,106.446-33.828,185.549,0,0,157.973-58.326,211.908-45.1s56.1,45.794,145.589,92.606,45.727,110.923,55.9,220.828,69.407,113.976-16.179,132.293-156.82,22.058-170.049,51.226-25.512,45.107-52.444,59.526-28.52,2.881-71.485,0-103.244-17.834-103.244-17.834-23.558-38.608-13.186-6.231,44.971,72.065,42.936,122.947-30.421,151.445-9,107.429,40.545-96.587,78.2-110.658,35.617-13.892,35.617,30.286,13.988,176.472,16.153,216.16,8.271,88.436-26.329,110.874-78.036-6.057-103.639-18.269-55.221-9.321-65.852-26.031-12.17-31.242-12.17-31.242-17.08,37.2-1.226,64.017,46.014,44.647,68.4,48.718,30.02,6.614,38.67,14.755,35.109,16.283,35.109,29.512-3.053,28.494-7.123,48.847-7.633,24.423,2.035,27.985,39.179,8.65,51.9,2.544,9.709-8.141,4.854-29.511-19.1-69.709-11.469-56.988,16.791,38.161,24.423,55.461,13.539,30.621,2.415,33.884-36.632,8.663-53.864,6.694-65.582-10.786-91.519-11.757,11.587,3.312,40.134,12.178,55.514,9.374,82.99,6.321,47.321-4.07,64.621-4.07,23.405-2.035,17.3,0-44.267,13.229-84.464,13.229-77.017-1.706-110-7.467-57.23-8.187-57.23-8.187,62.3,27.357,86.781,37.025,89.1,11.194,120.643,5.6,41.723-3.9,68.182-9.074,49.356-13.314,35.109-4.156-49.865,45.285-111.432,55.971-132.173,8.529-189.984-21.177c0,0,38.355,20.668,71.937,50.179s44.777,23.406,19.336,27.477-47.829,0-20.353,6.106,58.41-6.106,99.931,2.035,70.015,19.335,115.809,5.088,71.235-40.706,42.741-13.229-72.253,50.882-27.477,36.635,110.542-54.953,92.924-36.635c-16.762,17.427-48.905,241.173-399.021,165.611,124.3,44.382,240.71,30.44,338.153-13.983,138.4-63.094,257.972-179.1,300.713-281.886s37.653-279.852,53.935-318.522,61.059-106.853,56.988-174.017S2064.62,1441.52,2044.776,1451.187Z" fill="#55557b" opacity="0.15"/><path d="M1628.572,1347.672s-33.593,24.394-61.07,53.4-32.055,37.959-29.766,72.406,9.922,106.191,9.922,135.193,1.145,52.663,4.58,75.56,11.067,80.9-12.212,113.34-71.362,34.727-105.707,13.357-37.017-46.557-32.438-70.981,13.357-42.741,16.41-70.98,4.2-41.6-1.527-27.095-22.525,38.161-36.64,51.9-47.7,48.811-75.936,92.142S1205.723,1890.3,1186.65,1904.8s-20.989,38.162-8.205,70.981-3.752-23.406,18.127-43.759,44.267-38.275,70.217-72.564,50.882-65.835,50.882-59.221,8.152,31.547,39.439,48.847,60.8,2.55,73.52,12.723,36.635,33.58,70.217,27.474,29-26.459,51.391-24.678,50.882,3.194,74.8-5.145,36.635-30.727,39.688-43.447-.508-9.668,14.247-.509,70.218,48.338,97.694,67.164,55.97,38.162,58.514,58.006-2.939,55.865,7.124,33.582c21.37-47.32,6.615-59.532-24.424-80.9s-145.013-92.178-149.593-110.415-9.159-32.055-22.9-49.864-29.511-36.126-34.6-63.6-10.176-60.549-15.264-84.973-8.65-33.073,6.614-19.844,46.3,30.021,71.235,40.2,3.053-4.579-5.6-16.282-16.791-12.212-8.65-11.7,25.95,17.3,8.141.509-44.776-29.512-29-26.459,61.567,10.685,102.273,7.124,17.872-5.852-1.209-9.668-28.43-3.434-13.738-4.007,41.024-6.722,41.024-6.722-33.773.616-42.741-.91c-9.339-1.59-9.454-1.714-41.851-14.228-.377,3.154,6.483-20.182,10.177-22.8,8.141-5.775,46.925-30.884,76.916-36.3s93.678,6,93.678,6-50.767-27.114-91.218-20.627-38.543,4.58-26.332-.381,54.19-16.028,84.337-8.4a355.827,355.827,0,0,1,53.049,17.957s-17.94-33.6-83.578-43.525-70.6-9.54-62.585-13.357,54.19-16.791,85.291-20.225,59.5-8.951,71.137-1.529c0,0-3.521-15.078-74.762-9.538s-98.075,6.487-138.145,11.448S1603.4,1408.379,1628.572,1347.672Z" fill="#55557b" opacity="0.2"/><path d="M1387.1,1367.167s9.949,38.61,19.108,62.079,12.212,77.052,1.527,89.439-34.091,38.337-44.268,56.655-28.494,40.705-24.932,29,6.106-38.67,6.106-38.67-77.656,22.388-105.738,22.388,40.1-4.682,63-24.983,42.43-19.284,21.47-19.793-22.488-1.018-17.4-4.071,40.706-3.053,5.089-3.053-45.71,7.028-59.532,0-21.728-7.683-21.728-7.683,39.575-.058,48.968-.557,26.695-4.57,39.415-5.415,5.343-4.662-.763-11.277-23.406-18.7-32.056-25-41.649-27.69-77.849-27.412-43,1.334-43,1.334,31.038-13.292,75.815-9.221,54.443,7.632,40.2,1.272-70.65-21.879-105.669-13.229-37.564,9.7-37.564,9.7,49.3-30.559,101.607-30.559,58.418-1.526,30.687-7.378-103.8-20.5-103.8-20.5,70.777-2.928,112.624,1.968,64.324,6.353,90.9,6.317S1393.686,1384.4,1387.1,1367.167Z" fill="#55557b" opacity="0.15"/><g opacity="0.2"><path d="M1570.662,2331.161c-474.136,27.463-523.447-504-532.842-585.875-10.685-93.114-10.685-386.2-14.456-455.726s-.809-87.7,0-196.074,128.594-154.543,128.594-154.543c-34.475-66.793-68.03-105.914-100-125.221-17.917,6.2-27.875,9.58-27.875,9.58s-97.694,116.012-106.853,238.129S926.388,1267.5,934.02,1319.4s13.23,81.411,18.827,108.379,12.72,37.143,0,33.073-42.741-1.527-49.356,20.353,4.58,75.814,6.615,92.6,20.862,45.285,31.547,66.147,26.967,23.914,27.985,59.023,13.229,103.545,19.335,160.787,25.353,219.914,208.519,359.578C1329.176,2319.758,1457.5,2347.144,1570.662,2331.161Z" fill="#55557b"/><path d="M1605.664,741.48c228.969,20.451,239.654,118.458,302.8,197.463s60.5,265.975,63.556,350.617,25.95,408.4-10.685,603.793-235.1,386.033-235.1,386.035c125.233-65.347,230.644-171.824,270.21-266.971,42.741-102.782,37.653-279.852,53.935-318.522s61.059-106.853,56.988-174.017-42.741-78.358-62.585-68.691,0-46.3,0-69.708,27.985-397.9-62.076-547.491c-57.812-96.027-209.971-156.194-362.808-167.595C1554.6,698.587,1537.443,735.387,1605.664,741.48Z" fill="#55557b"/></g><path d="M2029,1498.508V1344.844c0-89.553,8.141-262.552-33.582-319.54S1921.133,871.64,1883.48,839.076s-51.9-32.565-91.588-30.529-64.111,0-100.746-8.141-133.311-31.547-194.37,5.088-138.4,91.587-264.587,118.046S1006.273,956.1,984.9,1002.916,964.55,1121.98,958.444,1156.58s0,178.087,4.07,234.058,20.348,85.512,3.053,77.34-16.282,1.018-27.476-17.3-20.353-40.706-20.353-70.218-6.17-74.288-16.314-99.729S873.98,1167.774,873.98,1121.98V1016.146c0-21.371-14.756-95.15,8.141-162.314s37.4-104.563,55.716-153.41,38.924-117.537,105.326-162.568,152.646-64.875,176.306-70.217l23.66-5.343s-87.008-.763-112.958,48.084c0,0,42.741-77.85,132.039-76.323s131.784-17.809,176.052-3.562l44.267,14.247s-54.289-32.162-92.1-23.915c0,0,25.95-19.844,97.693,8.141s117.538,35.109,146.541,48.338,52.917,29.512,38.161,15.265-25.95-24.423-17.3-18.318,43.25,19.336,71.49,30.021,45.794,31.292,24.423,9.159-36.635-32.819-24.423-26.713,25.95,16.791,25.95,16.791-19.081-29-45.031-35.109c0,0,60.3,7.632,87.008,49.61s35.109,67.928,26.713,41.978-21.37-57.243-9.158-37.4,35.871,39.688,48.846,59.532,16.791,39.688,12.975,19.844-5.342-29.766-5.342-29.766l12.211,25.95s-2.289-36.635,14.5-51.9-6.106-1.527,9.159,42.741,16.791,46.557,21.37,58.768,0,35.109,4.579,8.4,2.29-52.663,8.4-29.766,10.685,50.087,10.685,38.018,6.869-47.177,6.869-36.492,8.4,57.243,20.607,76.323,52.663,41.215,90.825,132.8,57.5,202.51,56.479,270.692-7.123,95.659-12.212,118.047,2.036,11.194-10.176,46.811-39.688,139.417-46.812,163.841S2029,1511.737,2029,1498.508Z" fill="#55557b"/><path d="M1280.019,1527.765s16.791-1.018,25.441,0,25.186,1.017,35.617-3.562,10.177-8.65-1.272-13.992-25.187-10.94-39.942-21.117-36.127-31.292-87.009-33.327-74.033,15.264-93.114,28.748-30.02,18.318-20.1,19.081,26.713,12.466,52.917,16.282,2.8-.058-11.957-11.7c-10.474-8.267-12.085-5.617-2.926-12.479s36.253-28.99,62.967-27.463,61.256,4.762,76.012,16.21,22.444,18.39,27.533,21.443,3.18,5.469,1.017,7.377-6.233,7.251-8.777,7.124-5.851-1.4-8.777.382S1254.959,1530.945,1280.019,1527.765Z" fill="#55557b"/><path d="M1732.169,1537.643s-21.688-.719-30.084-1.991-10.43-3.562-23.66-3.562-27.476-.509-22.133-11.957,12.466-10.946,24.932-19.466,56.479-46.172,104.944-48.844,83.192,16.41,101.51,35.109,27.095,20.607,15.646,22.134-39.306,14.31-64.684,19.653-.388-2.557,13.8-12.275c20.989-14.375,24.233-10.368,20.989-14.375s-17.809-27.921-48.338-34.79-65.638-.763-86.245,11.257-25.378,19.081-35.872,25.378-10.876,7.823-8.4,10.3,5.534,12.593,11.258,11.639,6.869-1.717,9.731.954S1741.552,1538.691,1732.169,1537.643Z" fill="#55557b"/><path d="M1807.233,1532.7a45.786,45.786,0,0,0-6.126-74.725c-15.257-.343-36.951,2.142-61.122,13.914a45.8,45.8,0,0,0,14.778,65.074C1764.722,1538.081,1782.649,1538.486,1807.233,1532.7Z" fill="#55557b" opacity="0.9"/><path d="M1260.908,1527.747a47.061,47.061,0,0,0,6.117-53.257,133.257,133.257,0,0,0-32.546-9.056c-15-2.336-28.035-4-40.178-3.939a47.037,47.037,0,0,0-4.536,65.824,104.213,104.213,0,0,0,21.118,2.545C1228.5,1530.178,1247.662,1528.332,1260.908,1527.747Z" fill="#55557b" opacity="0.9"/><circle cx="21.37" cy="21.37" r="21.37" transform="translate(1756.593 1476.12)" fill="#55557b"/><path d="M1756.593,1479.3c-.573-2.29,13.929.381,21.37,3.434s4.961-.763,10.686-6.614-1.145,10.621.763,16.155-2.672,3.816-6.3,6.487-2.48-.572-4.2-6.869,0,0-7.06,1.519-.954.389-4.961-2.473-8.817-1.276-13.738-.954.954-2.671,3.435-7.251Z" fill="#fff" opacity="0.25"/><circle cx="21.969" cy="21.969" r="21.969" transform="translate(1203.553 1474.747)" fill="#55557b"/><path d="M1203.553,1478.017c-.589-2.354,14.319.392,21.969,3.53s5.1-.784,10.984-6.8-1.177,10.919.785,16.608-2.746,3.923-6.473,6.669-2.55-.588-4.316-7.061,0,0-7.257,1.562-.981.4-5.1-2.543-9.065-1.312-14.123-.981.981-2.746,3.531-7.454Z" fill="#fff" opacity="0.25"/><path d="M1908.459,1483.752s-28.032-39.688-66.193-50.373-118.047-17.743-172.491,41.5" fill="none" stroke="#55567c" stroke-miterlimit="10" stroke-width="9.159"/><path d="M1090.737,1486.232s36.635-41.659,100.747-49.292,96.167-2.544,153.155,46.812" fill="none" stroke="#55567c" stroke-miterlimit="10" stroke-width="9.159"/><path d="M1032.223,1442.029s26.459-49.356,80.9-50.374,117.538-5.088,174.526,1.527,120.59,17.808,103.8-16.791-16.791-47.321-54.443-49.865-105.835-8.141-147.559-15.264-81.92-9.159-106.343,5.6-43.25,24.932-53.426,73.27S1022.555,1460.855,1032.223,1442.029Z" fill="#55557b" opacity="0.75"/><path d="M1936.906,1420.149s-29.766-52.663-82.429-50.373-107.615,3.053-161.805,12.975-85.863,17.409-73.652-13.048,18.7-48.774,64.493-54.116,109.524-18.318,133.566-23.279,77.086-4.69,95.4,13.492,28.494,59.4,33.582,82.8S1951.662,1445.59,1936.906,1420.149Z" fill="#55557b" opacity="0.75"/><path d="M1250.507,1967.132s7.632-1.527,30.02,11.194,110.923,31.038,145.523,41.214,75.814,10.177,119.573,4.58,77.341-12.212,106.852-14.247,93.115-36.636,115.5-29.512" fill="none" stroke="#55567c" stroke-miterlimit="10" stroke-width="12.743"/><path d="M1258.1,1968.223s52.191,19.389,85.392,19.389,74.033.381,112.958,8.014,53.808,6.487,84.337,0,56.861-9.922,91.588-8.4a615.261,615.261,0,0,0,121.823-7.361s-8.992,1.369-44.737,41.706c-23.755,26.809-59.532,71.744-187.755,78.462-131.106,6.87-196.15-58.618-218.665-81.514S1276.509,1980.508,1258.1,1968.223Z" fill="#55557b" opacity="0.4"/><path d="M1478.2,1879.233s24.805,5.342,43.5-14.883,26.332-35.109,50.119-34.091c12.478.534,23.406,9.159,17.046,10.685s-15.519,7.632-25.7,7.124-17.808-.764-23.405,4.833-18.532,33.505-47.321,31.8C1466.65,1883.176,1459.016,1874.392,1478.2,1879.233Z" fill="#55557b"/><path d="M1434.191,1846.287s-18.826-18.572-32.819-18.063-26.713,10.939-18.826,12.974,16.282,6.615,26.2,5.089,10.94-3.562,17.809,0S1446.4,1858.244,1434.191,1846.287Z" fill="#55557b"/><path d="M1586.838,1861.806s43.758.919,62.076-31.6,2.544-80.854-19.336-105.786" fill="none" stroke="#55567c" stroke-miterlimit="10" stroke-width="10.685"/><path d="M1386.362,1852.484s-109.4-22.225-29-133.148" fill="none" stroke="#55567c" stroke-miterlimit="10" stroke-width="10.685"/><path d="M2054.444,1381.479c-2.035-9.159-82.429-20.353-133.82-25.441s-180.631-3.053-245.252,3.365-89.934,23.92-100.047,29.454-67.545,2.1-67.545,2.1-65.985,3.434-76.1-2.1-35.427-23.036-100.047-29.454-193.861-8.453-245.252-3.365-131.784,16.282-133.82,25.441,0,39.557,7.124,54.124,12.212,24.809,13.229,39.278c.873,12.41,11.1,53.453,13.991,64.887,4.542,26.854,9.883,51.076,14.654,64.353,11.1,30.887,22.578,62.826,78.718,75.61,35.2,8.016,78.136,12.105,125.039,12.106,24.282,0,49.619-1.1,75.512-3.311,78.624-6.723,95.9-26.994,117.578-59.512,20.7-31.048,36.831-87.053,37.524-89.482q3.819-13.248,6.537-25.386c2.435-7.844,7.621-25.894,7.912-38.281.382-16.219,1.873-56.288,57.4-52.854,45.793-2.289,48.465,36.635,48.846,52.854.292,12.387,5.477,30.437,7.912,38.281q2.73,12.153,6.538,25.386c.693,2.429,16.823,58.434,37.523,89.482,21.678,32.518,38.955,52.789,117.578,59.512,25.893,2.216,51.23,3.311,75.512,3.311,46.9,0,89.841-4.09,125.039-12.106,56.141-12.784,67.619-44.723,78.718-75.61,4.772-13.277,10.112-37.5,14.654-64.353,2.894-11.434,13.118-52.477,13.991-64.887,1.018-14.469,6.106-24.711,13.229-39.278S2056.479,1390.638,2054.444,1381.479Zm-631.717,154.26,0,.017c-.16.561-16.231,56.366-35.745,85.637-18.846,28.268-31.3,46.944-107.319,53.446-74.53,6.371-144.254,3.357-196.33-8.5-48.8-11.115-58.09-36.948-68.841-66.86-11.636-32.382-27.463-137.535-24.051-172.638,3.025-31.1,32.552-48.316,95.741-55.838,19.562-2.329,48.693-3.334,81.035-3.334,75.492,0,168.519,5.473,198.5,12.366,23,5.289,46.548,12.3,59.52,34.332C1439.7,1438.942,1438.861,1479.78,1422.727,1535.739Zm569.792,63.737c-10.751,29.912-20.036,55.745-68.841,66.86-52.076,11.86-121.8,14.874-196.329,8.5-76.024-6.5-88.474-25.178-107.319-53.446-19.515-29.271-35.586-85.076-35.746-85.637l0-.017c-16.134-55.959-16.977-96.8-2.507-121.375,12.972-22.037,36.517-29.043,59.52-34.332,29.982-6.893,123.01-12.366,198.5-12.366,32.342,0,61.473,1.005,81.035,3.334,63.189,7.522,92.716,24.742,95.741,55.838C2019.982,1461.941,2004.156,1567.094,1992.519,1599.476Z" fill="#55557b"/><path d="M2035.457,1413.535c-.6-13.459,6.685-25.708,17.3-33.328-27.652-6.72-77.53-13.229-113.337-16.774-51.391-5.089-180.631-3.053-245.252,3.365s-89.934,23.92-100.047,29.454-67.545,2.1-67.545,2.1-65.985,3.435-76.1-2.1-35.427-23.036-100.047-29.454-193.861-8.454-245.252-3.365-131.784,16.282-133.82,25.441,0,39.557,7.124,54.124,12.212,24.809,13.229,39.277c.873,12.411,11.1,53.454,13.991,64.888,4.542,26.854,9.883,51.076,14.654,64.353,11.1,30.887,22.578,62.826,78.718,75.61,35.2,8.016,78.136,12.1,125.039,12.106,24.282,0,49.619-1.1,75.512-3.311,78.624-6.723,82.163-26.995,103.84-59.512,20.7-31.048,36.83-87.054,37.524-89.482q3.819-13.248,6.537-25.386c2.435-7.844,7.62-25.894,7.912-38.281.381-16.219,15.611-56.288,71.137-52.854,45.793-2.289,48.465,36.635,48.846,52.854.292,12.387,5.477,30.437,7.912,38.281q2.73,12.153,6.538,25.386c.693,2.428,16.823,58.434,37.523,89.482,21.678,32.517,38.955,52.789,117.578,59.512,25.893,2.215,51.23,3.311,75.512,3.311,46.9,0,89.841-4.09,125.039-12.106,56.14-12.784,67.619-44.723,78.718-75.61,4.772-13.277,10.112-37.5,14.654-64.353,2.894-11.434,13.118-52.477,13.991-64.888.8-11.3,4.082-20.034,8.875-30.256C2046.53,1445.9,2036.227,1430.74,2035.457,1413.535Zm-600.038,129.6-.719,2.695c-.159.56-9.41,53.689-28.924,82.96-18.846,28.268-31.3,46.943-107.319,53.446-74.53,6.371-144.254,3.357-196.33-8.5-48.8-11.115-58.09-36.948-68.841-66.86-11.636-32.383-27.463-137.536-24.051-172.638,3.025-31.1,32.552-48.316,95.741-55.838,19.562-2.329,48.693-3.334,81.035-3.334,75.492,0,168.519,5.473,198.5,12.366,23,5.289,46.548,12.3,59.52,34.332C1458.5,1446.337,1451.553,1487.175,1435.419,1543.133Zm575.9,63.738c-10.751,29.912-20.036,55.745-68.841,66.86-52.076,11.86-121.8,14.874-196.329,8.5-76.024-6.5-88.474-25.178-107.319-53.446-19.515-29.271-35.586-85.076-35.746-85.637l0-.018c-16.134-55.958-16.977-96.8-2.507-121.374,12.972-22.037,36.517-29.043,59.52-34.332,29.982-6.893,123.01-12.366,198.5-12.366,32.342,0,61.473,1.005,81.035,3.334,63.189,7.522,92.716,24.742,95.741,55.838C2038.78,1469.335,2022.953,1574.488,2011.317,1606.871Z" fill="#55557b" opacity="0.45"/><path d="M2055.192,1641.486c-1.13-1.908,17.569-45.03,20.241-56.86s12.975-48.847,8.014-72.507-8.014-26.205-16.41-14.629-25.186,32.565-21.37,47.448" fill="none" stroke="#55567c" stroke-miterlimit="10" stroke-width="9.159"/><path d="M2045.111,1558.294s2.845,12.212,5.135,30.529,2.671,14.12,2.671,41.215-17.923,58.005,12.028,17.173" fill="none" stroke="#55567c" stroke-miterlimit="10" stroke-width="10.685"/><path d="M2076.387,1587.869s-1.908,4.961-4.2,17.364-6.869,17.173,0,12.784,8.968-5.629,8.968-5.39-9.909,25.616-16.212,37.255-16.184,21.042-15.081,9.54,5.353-54.25,2.1-67.927-6.938-22.091-3.946-18.01,7.175,12.476,7.175,12.476-1.893-20.8-5.518-29.766-7.3-18.375-1.127-29.778,23.451-39.69,26.886-33.005a97.629,97.629,0,0,1,9.279,37.047C2085.164,1545.51,2076.387,1587.869,2076.387,1587.869Z" fill="#55557b" opacity="0.45"/><path d="M961.558,1642.333c.915-1.888-20.086-41.1-23.53-52.049s-16.053-45.058-13.228-67.763,5.505-25.343,14.325-15.081,26.291,28.746,23.858,43.082" fill="none" stroke="#55567c" stroke-miterlimit="10" stroke-width="9.159"/><path d="M964.552,1563.077s-1.727,11.741-2.452,29.2-1.414,13.527.706,39.083,21.434,53.31-9.994,17.138" fill="none" stroke="#55567c" stroke-miterlimit="10" stroke-width="10.685"/><path d="M937.383,1593.418s2.186,4.53,5.315,16.05,7.819,15.66,1,12.058-8.895-4.608-8.876-4.383,11.345,23.386,18.2,33.872,16.9,18.582,14.962,7.819-9.29-50.751-7.293-63.906,4.812-21.379,2.311-17.3a108.834,108.834,0,0,0-5.788,12.329s.157-19.765,2.873-28.507,5.446-17.9-1.267-28.176-25.213-35.6-27.928-29.028a92.433,92.433,0,0,0-5.848,35.669C925.794,1554.151,937.383,1593.418,937.383,1593.418Z" fill="#55557b" opacity="0.45"/><path d="M1547.15,1789.044s20.352-39.179,9.667-106.852c-7.53-47.694-3.127-67.673-7.123-106.344s-9.159-106.083-.509-124.276,24.932-41.09,32.056-53.3" fill="none" stroke="#55567c" stroke-miterlimit="10" stroke-width="10.685"/><path d="M1352.446,1837.159s16.8,7.259,28.3,0,38.2-4.717,49.226,5.322,32.282,34.273,51.9,37.23,28.774-3.34,43.657-16.506,21.622-24.8,37.333-27.476,29.969,3.911,26.015,5.215-3.658,1.193-3.153,1,21.852,11.717,39.788,6.374-.241,4.665-5.337,6.627-21.567,6.989-36.259,6.859-15.646.061-11.449-2.61,12.975-.767-.19-2.482-22.9-7.444-29.385,0-21.943,28.813-51.136,29.2-40.833-18.127-54-25.377-14.5-9.541-26.141-9.541-16.027-1.145-15.837-.572,3.816,5.533,3.816,5.533S1364.114,1847.9,1352.446,1837.159Z" fill="#55557b" opacity="0.45"/><path d="M2112.449,1225.78c5.088-22.388,11.194-49.865,12.212-118.047s-18.317-179.105-56.479-270.692-78.613-113.722-90.825-132.8-20.607-65.637-20.607-76.323-6.869,24.424-6.869,36.492-4.579-15.121-10.685-38.018-3.816,3.053-8.4,29.766,0,3.816-4.579-8.4-6.106-14.5-21.37-58.768,7.632-58.006-9.159-42.741-14.5,51.9-14.5,51.9l-12.211-25.95s1.526,9.922,5.342,29.766,0,0-12.975-19.844-36.635-39.688-48.846-59.532.763,11.449,9.158,37.4,0,0-26.713-41.978-87.008-49.61-87.008-49.61c25.95,6.106,45.031,35.109,45.031,35.109s-13.739-10.686-25.95-16.791,3.053,4.579,24.423,26.713,3.816,1.526-24.423-9.159-62.84-23.915-71.49-30.021,2.544,4.071,17.3,18.318-9.159-2.035-38.161-15.265-74.8-20.352-146.541-48.338-97.693-8.141-97.693-8.141c37.807-8.247,92.1,23.915,92.1,23.915l-44.267-14.247c-44.268-14.247-86.754,5.088-176.052,3.562-57.809-.989-96.1,31.285-115.92,54.172-32.581,11.242-70.28,27.351-103.127,49.627-66.4,45.031-87.009,113.721-105.326,162.568s-32.819,86.245-55.716,153.41-8.141,140.943-8.141,162.314V1121.98c0,42.945,15.214,122.582,25.473,153.307h0s-13.262-168.571,30.5-247.947l43.758-79.376s-46.811,40.705-61.058,65.129c0,0,8.412-70.835,58.141-110.723s60.923-43.959,49.729-39.888-38.67,8.141-38.67,8.141,42.741-40.706,98.711-52.918,94.3-19.335,94.3-19.335-86.156-1.017-143.144-34.6,2.035,5.089,59.023,0,107.891-29.194,154.183-18.667,91.069,10.526,91.069,10.526-73.285-23.405-127.213-53.935-116-25.441-116-25.441,73.27-20.353,128.222-5.088,120.082,43.759,94.641,24.423-49.864-41.723-44.776-37.652,101.764,49.864,199.458,53.935-17.928-8.141-76.129-50.882-82.624-62.076-30.724-36.636,100.747,41.724,126.188,49.865,43.986,25.441,14.87,0-52.523-32.565-29.117-25.441,61.058,15.63,61.058,15.63-56.988-35.983-85.482-96.024,20.417,11.735,74.288,53.935,92.606,44.776,116.011,62.076,48.847,43.759,13.23,2.036l-35.618-41.724s78.359,54.953,107.87,82.429c0,0,5.088-16.568-33.582-62.728s-67.164-63.459-38.67-46.159,64.111,22.388,95.658,58.005,44.776,90.57,31.547,35.618-42.058-100.81-13.229-54.953,38.67,58.006,38.67,58.006l-20.345-88.535s6.607-2.576,24.924,38.018,29.057,90.507,24.451,53.721-12.239-63.5-4.607-49,41.474,67.121,42,67.413,3.031-48.332,12.19-63.6,9.922-7.632,10.685,18.317,6.106,57.243,7.632,73.271-1.544,22.159,9.15-3.04,3.062-55.729,10.694-25.2,41.3,62.6,58.769,97.694,14.221,67.992,20.086,41.628,5.864-30.434,5.864-30.434,7.124,16.282,28.494,77.341,41.723,92.6,23.406,69.2-34.392-34.388-34.392-34.388,40.5,56.776,53.727,95.447,24.423,42.741,0,26.458-41.245-60.041-24.693-11.194,18.587,55.971,20.622,94.641,15.265,53.935,2.035,38.67-21.37-25.441-17.3-20.353,17.3,50.883,23.405,100.747c1.677,13.7,3.213,25.714,4.559,35.961,5.3-18.415,10.183-34.691,13.759-45.12C2114.485,1236.974,2107.361,1248.168,2112.449,1225.78ZM1135.178,502.516c-2.967,4.293-4.606,7.148-4.937,7.736A60.673,60.673,0,0,1,1135.178,502.516Zm84.291-34.879a687.727,687.727,0,0,0-66.741,18.408c35.59-24.227,90.4-23.751,90.4-23.751Z" fill="#fff" opacity="0.1"/><path d="M1799.525,601.965c-2.29-5.342-31.293-45.03-31.293-45.03l8.4,26.713s-27.477-41.978-54.19-57.242-30.529-25.95-14.5,0,60.3,57.563,18.317,29.926-77.086-36.8-128.222-58.166S1524,443.213,1546.9,476.8s66.4,54.189,27.476,37.4-172.49-77.85-261.788-47.32,12.212,6.105,61.822,22.9,69.454,12.212,29.766,14.5-59.532-3.053-54.19,2.29,113.7,6.1,154.542,42.74,47.715,42.741,27.871,16.028-37.4-48.083-19.844-26.713,63.348,62.585,74.8,80.9,22.134,36.635,5.343,0-32.819-53.426-9.159-29.766,47.321,47.32,39.688,35.872-55.716-77.087-38.925-63.349,53.427,26.714,88.535,46.558,48.847,26.713,48.847,26.713-45.031-54.953-26.713-41.978,46.557,58.005,37.4,30.529-14.5-40.451-14.5-40.451,29,19.844,45.794,42.741,18.317,24.423,11.448-1.527-30.529-46.557-6.106-29.766,45.794,41.215,45.794,41.215-7.632-41.215-6.106-38.925,23.661,29.766,28.24,38.925,27.476,61.535,22.134,28.1-21.776-86.091-22.134-80c-.763,12.975,16.791,25.187-16.791,0l-33.582-25.187Z" fill="#fff" opacity="0.2"/><path d="M1430.884,582.121s-41.215-35.871-77.086-48.846-116.012-45.794-190.808-25.187,5.342-1.526,39.688,9.159l-34.346,10.685,37.4,9.159s-97.694-15.265-161.8,33.582-.763-.583,38.925-3.726,57.242-11.539,39.688-3.143-32.819,14.5-32.819,14.5H1131.7s-71.743,12.975-103.8,54.19-90.825,70.98-41.215,50.373,67.928-29,57.243-22.9S976,720.266,962.26,731.715s-27.476,12.975,12.212,3.816,75.56,3.816,128.223,0,72.507,3.816,52.663-3.816-91.588-17.555-67.165-17.555,81.666-3.816,73.27-3.816-63.348-17.554-98.456-17.554-27.477-2.29-27.477-2.29l54.19-8.4-29-6.666s65.638-27.68,106.852-27.68,98.457,19.081,48.847-.763-82.429-33.5-62.585-25.528,74.8,14.08,66.4,10.263-49.61-22.133-49.61-22.133,98.457,26.713,142.724,38.161,82.429,31.293,35.872,5.343-78.613-41.978-64.111-38.162,45.794,15.346,32.056,6.528-45.794-28.661-88.535-39.347-80.9-16.791-42.741-10.685,90.824,3.053,123.643,14.5,48.084,11.448,6.869-6.106-92.351-36.635-45.03-20.608,65.638,20.025,49.61,7.723-45.794-27.567-16.028-12.3,83.955,41.978,125.933,58.006,76.323,32.055,29,3.053-79.376-44.268-75.56-42.741,54.953,22.9,54.953,22.9Z" fill="#fff" opacity="0.2"/><path d="M1920.624,685.921s7.123,6.615,16.791,30.529,14.756,45.794,12.721,30.529S1948.1,725.1,1948.1,725.1s6.615,16.791,17.3,39.688,15.774,33.073,15.774,33.073-3.053-30.02,0-23.914,18.317,59.532,18.317,59.532l4.58-38.67s10.176,38.67,21.879,59.532,25.95,50.373,29.511,67.164,2.545,37.144,4.071,7.123,0-46.3,5.088-38.161,18.827,31.547,18.827,31.547-25.441-91.588-38.671-112.45L2031.547,788.7s7.123,33.582,2.544,23.4-20.862-30.02-32.056-49.355-13.738-39.688-14.756-24.932,7.633,34.091-6.105,7.632-16.791-60.55-18.827-38.162,4.58,45.285-5.6,18.318-19.335-69.3-19.335-50.17,10.176,38.976-1.018,22.185-32.564-44.268-32.564-44.268l7.123,63.6,5.089-32.565,2.544,18.318Z" fill="#fff" opacity="0.2"/><path d="M1388.906,1392.291s1.908,1.145,3.053,22.134,3.816,36.254,6.488,56.1-4.58,25.351-19.081,51.982-12.593,30.065-13.738,19,13.738-18.419-3.816-13.026-33.964-.331-46.558-2.62-22.133,0-11.066-4.961,7.25-12.975,7.25-12.975-39.244-33.47-55.419-37.514-30.5-8.914-30.5-8.914,19.9,3.119,55.387,8.364,50.866,14.217,31.348,0-37.835-26.048-55.39-31.772-34.779-6.487-20.824-6.869,12.81-4.579,54.025-4.961,57.624.382,30.911-10.3-69.507-14.883-84.936-16.027-42.142-10.3-42.142-10.3,38.161-1.915,98.838,2.664S1383.945,1399.16,1388.906,1392.291Z" fill="#55557b" opacity="0.15"/><path d="M1621.946,1369.267s-48.847,36.5-54.444,64.809,0,53.238,5.6,79.7,11.185,21.984,11.185,21.984-6.1-42.337,4.589-20.457,44.776,55.97,43.25,54.444-29.388-41.215-15.712-35.618,52.537,16.354,81.858,13.3,14.756-3.038,0-12.493-24.932-12-17.808-20.139,21.327-20.141,21.327-20.141,60.531-36.405,92.618-36.626l32.086-.221s-76.832-3.3-102.782,3.691-45.794,17.679-16.282,2.924,58.561-26.59,81.689-30.341,66.677,4.408,66.677,4.408-55.252-21.388-111.731-21.9-78.867,6.614-59.532-2.036,79.616-30.529,98.323-34.091,56.94-12.8,56.94-12.8-96.748,2.784-141.525,9.571S1609.735,1399.977,1621.946,1369.267Z" fill="#55557b" opacity="0.15"/></g></svg>