<svg xmlns="http://www.w3.org/2000/svg" width="397.891" height="397.891" viewBox="0 0 397.891 397.891">
    <g transform="translate(-750.537 -634.039)">
        <path d="M949.483,656.437c-97.35,0-176.548,79.2-176.548,176.548s79.2,176.547,176.548,176.547,176.547-79.2,176.547-176.547S1046.832,656.437,949.483,656.437Zm0,347.825c-94.442,0-171.278-76.835-171.278-171.277s76.836-171.278,171.278-171.278,171.277,76.836,171.277,171.278S1043.925,1004.262,949.483,1004.262Z" fill="#4cae50"/>
        <path d="M1148.428,832.985c0-109.7-89.246-198.946-198.945-198.946S750.537,723.286,750.537,832.985s89.247,198.945,198.946,198.945S1148.428,942.684,1148.428,832.985Zm-198.945,185.77c-102.435,0-185.771-83.336-185.771-185.77s83.336-185.771,185.771-185.771,185.77,83.336,185.77,185.771S1051.917,1018.755,949.483,1018.755Z" fill="#55557b"/>
        <path d="M1000.9,753.114c11.8,14.049-3.934,21.355-3.934,21.355q-5.283,1.392-10.261,2.91c-.151,5.884-.284,11.96-.393,18.121a228.924,228.924,0,0,1,41.563-4.734c-10.116-13.487,6.744-41.1,6.744-41.1-7.306-2.884-14.612-17.909-14.612-17.909C1017.763,740.188,1000.9,753.114,1000.9,753.114Z" fill="#55557b"/>
        <path d="M1015.515,821.675c-12.343-5.5-21.95-9.282-29.407-11.867-.374-.13-.74-.255-1.1-.378-9.148-3.115-14.911-4.366-18.461-4.81-.4-.051-.778-.091-1.126-.122-3.207-.287-4.14.176-4.14.176,1.286-.791,2.654-1.536,4.083-2.24-.166-6-.325-11.848-.474-17.422a224.274,224.274,0,0,0-35.272,17.721,184.833,184.833,0,0,0-18.454,13.079c-17.817,14.393-24.9,26.095-24.9,26.095-4.5-52.826,10.677-76.884,10.677-76.884C888.508,760.634,876.706,743,876.706,743c-1.686,7.868-19.107,22.025-19.107,22.025,27.349,93.209,0,144.884,0,144.884,15.173,3.372,24.165,24.727,24.165,24.727,0-6.182,16.859-30.347,16.859-30.347-13.9-32.536-2.488-55.439,12.593-70.276a96.738,96.738,0,0,1,17.9-13.7,101.015,101.015,0,0,1,16.711-8.194,164.245,164.245,0,0,1,19.923,4.212c.381.107.756.216,1.131.326a98.22,98.22,0,0,1,18.016,7.078c.372.2.736.392,1.1.589,50.459,27.483,10.972,82.77,10.972,82.77,15.736,4.5,28.1,27.537,28.1,27.537,0-13.488,16.3-29.223,16.3-29.223-23.6-48.893,0-77.554,0-77.554C1027.879,827.857,1015.515,821.675,1015.515,821.675Z" fill="#55557b"/>
        <path d="M1010.083,953.554c-10.49,19.107-19.857-23.229-23.6-67.063-1.237-14.471-1.657-37.232-1.584-61.486a95.919,95.919,0,0,0-17.978-7.164c.536,18.688,1.126,37.967,1.714,54.788H927.476c.548-15.666,1.1-33.462,1.6-50.93a95.06,95.06,0,0,0-17.868,13.945c-.067,20.165-.528,38.516-1.582,50.847-3.747,43.834-13.113,86.17-23.6,67.063,0,0-11.614-13.488-14.986,7.868,0,0,16.86,31.845,43.835-8.618,0,0,11.988,13.114,19.856,1.5,0,0-10.865-3-8.617-47.956.348-6.958.714-15.861,1.084-25.93h41.714c.37,10.069.736,18.972,1.084,25.93,2.248,44.959-8.617,47.956-8.617,47.956,7.868,11.615,19.857-1.5,19.857-1.5,26.975,40.463,43.834,8.618,43.834,8.618C1021.7,940.066,1010.083,953.554,1010.083,953.554Z" fill="#55557b"/>
        <path d="M890.9,715.648s9.741-.749,8.991-6.744c0,0,5.246-.374,7.494,6.744,1.4,4.428,3.375,52.483,3.769,98.729a186.4,186.4,0,0,1,18.5-12.954c.252-9.125.486-17.865.7-25.83h35.414q.1,3.795.206,7.808c.011.39.021.78.032,1.172.148,5.543.3,11.356.47,17.33l.026.93q.016.59.033,1.181a90.851,90.851,0,0,1,18.49,4.25c.044-3.8.1-7.594.16-11.364.006-.382.012-.765.019-1.146.1-6.124.231-12.171.376-18.034q.015-.589.029-1.176c.8-31.661,2.114-57.693,3.126-60.9,2.248-7.118,7.493-6.744,7.493-6.744-.749,5.995,8.99,6.744,8.992,6.744,6.923.533,10.944-7.192,9.018-13.1-2.107-6.465-10.346-9.216-16.438-9.828-7.273-.731-13.209,3.818-17.45,9.278-.427.549-6.335,8.841-5.479,9.531-11.613-9.365-20.605,0-20.605,0,10.116,8.243,10.491,23.978,10.491,23.978s.281,11.827.736,29.518H930.622c.455-17.693.736-29.518.736-29.518s.375-15.735,10.491-23.978c0,0-8.991-9.366-20.6,0,.866-.7-5.227-9.228-5.671-9.8-4.411-5.663-10.627-9.89-18.1-8.894-6.312.841-15.131,4.167-16.06,11.495C880.722,709.741,884.554,716.136,890.9,715.648Z" fill="#55557b"/>
    </g>
</svg>