<svg version="1" xmlns="http://www.w3.org/2000/svg" width="933.333" height="933.333" viewBox="0 0 700.000000 700.000000"><path d="M327.8.4c-.1.2-4.1.6-8.8 1-4.7.4-9.6.8-11 1-1.4.2-4.6.7-7.1 1C220.2 14.5 143.4 55.8 88.3 118 51 160 22.5 213.9 10.4 265c-5 21.4-7.2 34.5-9.1 55-1.5 16.2-.8 59.2 1.1 71 .3 1.4.7 4.5 1 7 1.5 11.4 1.8 13.7 2.6 17 .5 1.9 1.2 4.8 1.4 6.5 6.7 37.2 26.9 85.7 50.8 121.4 17.3 25.9 40.4 52.1 63.4 72.1 26.4 22.9 62.3 45.1 94.4 58.3 26.5 10.9 60.7 20.3 85 23.2 2.5.3 5.6.7 6.9 1 13.5 2.6 70 2.6 83.9 0 1.6-.3 10.4-1.5 14.7-2 6.1-.8 20.6-4 32.2-7 45-12 85.4-31.6 122.8-59.9 4.4-3.3 8.5-6.5 9.1-7.1.7-.5 3.9-3.3 7.2-6 7-5.8 32.4-31.4 39.7-40.1 28.5-33.5 52.1-76.1 65.8-118.9 3.1-9.6 7-23.9 8.3-30 1.6-7.7 5.4-30.1 6-35 .4-3.3.9-7.6 1.1-9.5.8-7 1-54.7.2-61-.4-3.6-1.1-9.7-1.4-13.5-.4-3.9-.8-7.2-1-7.5-.2-.3-.6-3-1-6-.3-3-1-7.1-1.5-9-.5-1.9-1.2-5.1-1.5-7-.3-1.9-1.9-8.7-3.5-15-9.1-35.9-24.2-70.1-45.5-103.5-3.6-5.7-20.1-28.4-21.4-29.5-.3-.3-2.8-3.2-5.5-6.5-12.3-14.9-38.5-39.8-53.1-50.6-3.3-2.4-6.2-4.6-6.5-5-1.7-1.9-21.8-15-32.7-21.2C486.5 25.1 445 10.3 405.5 4.4c-2.7-.4-5.7-.9-6.5-1-.8-.2-4.4-.6-8-1-3.6-.3-7.8-.8-9.5-1.1-3.3-.5-53.1-1.3-53.7-.9zm49.7 23.9c1.1.3 5.6.8 10 1.2 4.4.4 8.2.8 8.5 1 .3.1 3.2.6 6.5 1 3.2.3 6.2.8 6.5 1 .3.2 2.2.6 4.2.9 3.2.5 9.3 1.8 14.8 3.1 55.1 13.5 109.2 43.6 150 83.6 8.7 8.5 23.2 24.6 27.5 30.4 1.7 2.2 3.2 4.2 3.5 4.5.4.3 3.4 4.3 6.7 9 26.3 36.7 45.7 80.9 54.3 124 2.6 13.3 2.9 14.9 3.6 20.5.3 2.7.7 6.1.9 7.5 2.6 19.4 2.6 60.5 0 77.4-.2 1.2-.6 4.3-1 7.1-2.2 16.5-7.9 39.9-14.1 58.5-35.3 104.4-123.1 185.2-230.2 211.9-15.4 3.8-23.9 5.5-34.2 6.7-3 .3-5.8.8-6.1 1-2.8 1.6-48.4 2.4-65.4 1.1C268 671.3 214 652.2 167 620.5c-33-22.3-63-52.1-86.2-85.5-29.5-42.5-49.8-96.4-55.3-146.5-.4-3.3-.9-7.6-1.2-9.5-1.8-13.6-.6-58.4 2.2-76 2.2-13.7 3.2-18.9 7-34 6.6-26.2 17.4-53.4 30.8-77.5 5.1-9.1 20.4-32.9 23.7-36.9 1-1.1 4.5-5.5 7.8-9.6 14.6-18.4 34.7-38 55.6-54.5 5.1-4 27.4-19.2 30.6-20.9 1.4-.7 5.4-3 8.9-5 24.5-14.1 56.3-26.3 86.1-33.1 15.1-3.4 31.7-6 46-7.1 4.7-.4 8.6-.8 8.8-.9.5-.4 43.7.3 45.7.8z"/><path d="M338.8 39.5c-.2.2-5.2.6-11.3.9-6 .4-12.1.8-13.5 1.1-1.4.2-5 .6-8 1-21.1 2.5-50.3 10.5-74 20.2-9 3.7-29.1 13.5-35 17.1-1.9 1.2-4.2 2.5-5 2.9-5.8 2.7-24.5 15.7-36.8 25.6-30.3 24.5-59 58.5-76.2 90.2-2.4 4.4-5.4 10-6.7 12.4-10.4 19-23 56.5-27.8 82.6-3.5 19.5-4.8 34.3-4.8 55.5-.1 14.8.5 27 1.8 37 .2 1.9.7 5.7 1.1 8.4.7 5.6.6 5.4 3.4 19 3.7 18.2 11.1 42.1 17.1 55.3 1 2.4 1.9 4.5 1.9 4.9 0 1 11.8 24.2 16.1 31.6 33 56.9 83.1 101.8 143.9 129.1 20.5 9.2 49.6 18.1 69.9 21.3 1.8.3 4.3.8 5.5 1 1.1.2 4.1.7 6.6 1 2.5.3 5.6.7 7 .9 5.3 1 24.1 1.9 37.5 1.9 17.4 0 36.2-1.5 48.2-3.8 1.1-.3 3.7-.7 5.7-1 19.2-3.1 48.6-12 69.1-21.1 77.8-34.3 139.3-100.1 167.7-179.5 7.1-20 13.5-45.5 15.3-61.5.4-3.3.9-6.9 1.1-8 2.3-11.8 2.2-53.8-.1-71.5-.2-1.9-.7-5.5-1-8-4.1-33.3-18.8-76.4-37.3-109.1-27.1-48.1-70-90.8-118.7-117.9-27.2-15.2-67-30-89.9-33.4-2.1-.4-4.1-.8-4.5-1-.3-.2-2.8-.7-5.6-1-2.7-.4-6.1-.9-7.5-1.1-4.4-.6-11.3-1.4-18.5-2.1-6.9-.6-36.2-1.3-36.7-.9zm30 9.9c6.2.4 14.6 1.1 18.5 1.6 4 .6 9 1.3 11.2 1.6 5.4.7 21.7 4.2 28.5 6.1 3 .8 6.6 1.7 8 2 1.4.3 3 .9 3.5 1.3.6.4 2.6 1.1 4.5 1.5 4.7 1 25.3 9.2 37 14.7 18.9 9 44.2 24.9 58.1 36.5 24.3 20.4 38.2 34.9 53.9 56.2 34.1 46.1 53.7 98.8 58.5 156.6.6 7.3.7 40.2.1 44.5-.2 1.4-.7 5.6-1 9.5-.9 8.5-3.3 24.3-4.7 30.5-.6 2.5-1.3 5.6-1.5 7-1.6 8.7-11.4 38.4-16.1 49-14.2 31.5-32.6 60.5-51.7 81.4-13.5 14.8-28.4 28.9-38.1 36.1-2.2 1.7-4.2 3.2-4.5 3.5-.3.4-4.3 3.3-9 6.7-41.1 29.5-93.2 49.2-142.5 53.8-3.8.4-8.1.9-9.5 1.1-3.1.5-40.4.5-44.4-.1-1.6-.2-6.5-.7-11-1-4.4-.4-8.3-.8-8.6-1-.3-.2-2.7-.6-5.5-1-2.7-.3-9-1.5-14-2.6-26.5-5.8-44.2-11.9-70.5-24.1-13.7-6.4-33.6-18.7-49.5-30.6-9-6.7-27.1-22.5-31.8-27.7-1-1.1-4.4-4.7-7.5-8-6.8-7.2-11.8-12.9-15.2-17.4-15.6-20.7-22.5-31.4-31.1-48.1-6.3-12-12.1-25-14.9-33-.7-1.9-1.6-4.4-2.1-5.5C61 439 53.1 405 51 386.5c-.6-5.5-1.3-12-1.6-14.5-.7-5.9-.7-38.2 0-44 .3-2.5.8-7.2 1.1-10.5 1-9.6 2.6-19.8 4.1-26.5.3-1.4.7-3.9 1-5.5 2.6-15.9 13.2-45.9 24-68.1 8.2-16.8 26.7-46.3 33.9-54 .5-.6 2.6-3 4.5-5.4 19.7-24.6 54.7-54.1 82.5-69.6 35.5-19.8 72.8-32.4 109-36.9 2.8-.4 6.1-.9 7.5-1.1 1.4-.3 10.4-.7 20-1.1 9.6-.3 17.7-.7 17.8-.9.2-.1.9-.1 1.5.1.7.2 6.3.6 12.5.9z"/><path d="M253 104.5c-17.8 4.6-26.3 15.7-21.5 28 2 5.2 7.5 10.4 11.3 10.6 5.4.3 9.2-.2 12.6-1.6 3.6-1.5 7.6-5.8 7.6-8.1 0-2.4 3.8-1.5 7.4 1.6 6.2 5.5 6.9 10.3 9.1 60 1.2 27.4 1.7 46.4 3 106 .1 6.9.3 13.3.4 14.3.1 1.3 2 .3 8.4-4.6 4.5-3.4 11.7-8.5 16-11.2 7.5-4.7 7.7-5 7.8-8.9.1-2.3.3-8.6.4-14.1.2-5.5.4-13.9.5-18.8l.2-8.7H379l.1 12.2c.1 15.4.8 37 1.3 37.5.2.2 4.2 1 9 1.9 4.7.8 11.5 2.4 15.1 3.5 3.6 1.1 6.9 1.8 7.4 1.5.4-.3.9-10.1 1-21.8.2-11.7.4-26 .6-31.8.6-20.7 1.6-49.6 2-57.5.2-4.4.7-13.4 1-20 1.3-28.7 2.5-34.5 8-39.4 4.2-3.7 7.1-4 8-.9 1.6 5.1 6.1 8 14.3 9.2 12.3 1.7 21.4-11.9 16.3-24.7-2.1-5.4-10-11.2-18.6-13.6-13.6-3.9-23.5-1.7-33.6 7.6-5.8 5.4-15.9 19.4-15.9 22 0 .9-1.8.3-5.4-1.7-3-1.7-7.6-3.3-10.3-3.7-5.7-.6-14.5 1.6-18.2 4.7l-2.3 2 3.9 4.7c6.6 8.1 10.5 16 11.8 23.6.3 1.7.8 3.9 1.1 4.8 1 3.4 1.3 8.7 1.9 34.7l.6 26.7-29.8-.1c-16.4-.1-30.2-.3-30.6-.3-.8-.1 0-47.8.8-56.5 1.2-11.4 6.2-23.7 13.2-32.3 4.2-5.2 4.4-5.5 2.6-6.8-4.8-3.7-9-5-15.8-5-6.1 0-7.8.4-12.7 3.3-3.6 2-5.8 2.7-5.8 2 0-2.7-10.3-16.8-16-22.1-9.2-8.6-19.3-11.2-31-8.2z"/><path d="M472.8 175.4c-3.2 6.6-13.5 17.9-28.1 30.8l-3.9 3.4 3.2 5c4.2 6.8 5 14.4 2.2 20-3.8 7.4-9 11.3-18.6 14-2.8.8-6.7 1.9-8.7 2.5l-3.5 1.1-.3 15.9-.2 15.8 2.2-.4c1.3-.3 4.1-.7 6.3-1.1 2.2-.3 4.3-.7 4.6-.9 2.1-1.2 45.6-5.7 56.6-5.8h3.2l-1.9-3.6c-6.9-13.5-3.3-35.8 10.2-61.8 3.2-6.2 3.5-7.3 2.1-7.7-4.4-1.4-16.4-15.9-21.4-25.8l-2.4-4.8-1.6 3.4zM221 194.4c0 3.6-13.7 19.2-28.7 32.8l-4 3.6 3.3 11.7c3.2 11 3.7 12.8 4.9 19.2.3 1.6 1 4.4 1.5 6.3 2.5 9.5 7.6 39.9 8.6 51.4.3 3.3.7 6.6.9 7.3 1.7 5.2 2.5 50.7 1.2 69.3-1.9 27.6-7.1 53.9-14.9 75.5-2.2 6-4.2 11.7-4.4 12.5-.4 1.1.9 2 4.5 3.3 4.6 1.6 12.9 7.4 17.6 12.2 4.4 4.5 12.5 15.7 14.9 20.5.4.8 1.5 3 2.5 4.9l1.8 3.5 1.7-5c2-6.1 10.5-21.2 20.3-36.4l7.6-11.5-3.1-9c-7-20.2-9-36.1-6.8-54 4.9-39.3 39.1-76.6 89.6-97.7 3.5-1.5 6.2-1.3 20.5 1.6 1.7.3 4 .8 5.2 1 5.2 1.1 18.4 4.9 26.1 7.7 38.1 13.4 59.9 34.9 66.2 64.9 1.1 5.6 1.4 23.1.5 28.5-3.5 19.5-10.6 38.4-21.1 55.7-2 3.3-3.5 6-3.3 6.2.2.1 2 .9 3.9 1.6 12.2 4.7 28.3 20.4 40.7 39.6l3.9 6.2 1.2-5.7c2.7-12.5 12.9-29.3 25.9-42.6 1.9-2 1.9-2.1-1.9-10.8-10.4-24-14.4-43.3-14.2-67.7.3-19.9 5.2-39.1 13.9-53.5 2-3.2 3.4-5.9 3.3-6.1-.2-.1-2.8-.5-5.8-.8-16.6-1.6-26.8-5-68.5-23.1-19.8-8.6-49.3-17.2-60-17.7-3.9-.1-4.2-.3-2.7-1.4.9-.7 2.3-1.4 2.9-1.4 1 0 1.2-3.4.8-15.2-.3-8.3-.7-15.3-.9-15.5-1-1.1-30.4 12.6-47.1 22-35.3 19.8-68.6 47.2-86.1 71-2.4 3.1-4.4 5.4-4.6 5-1.3-2.7-1.6-41.1-.4-57.3.9-12.6 1.2-15 3.2-26 .8-4.7 1.8-9.9 2.1-11.5 1-5.9 7.2-25.1 10.3-31.9l3.1-7-3.3-2.5c-7.4-5.5-29.8-31.3-29.8-34.2 0-.5-.7-.9-1.5-.9s-1.5.7-1.5 1.4z"/><path d="M381.4 346.2c1 34.2 1.7 57.5 2 65.9l.3 7.6-36.1-.1-36.1-.1.1-6.5c.1-8.1 1.3-45 2-66.8l.6-16.4-6 4.1c-7.4 5-19.8 15-23.1 18.5-2.4 2.5-2.4 3-2.7 22.4-.3 30.1-1.3 56-2.9 72.7-.2 2.2-.6 6.9-1 10.5-.3 3.6-.8 8.1-1.1 10.1-.4 3.4-.7 5.5-1.9 16.1-1.2 11-6 36.6-9.1 49.2-8.4 33.8-17.3 44.3-26.3 31.3-5.3-7.8-13.7-11.6-19.1-8.7-2.7 1.5-6.6 8.6-8 14.8-1.2 5-1.1 5.4 1.5 9 4.2 5.7 10.8 11.5 16.2 14.2 7 3.6 16.6 3.5 24.7-.3 9.6-4.5 18.6-12.5 28.4-25.4l5.4-7.3 3.4 3c10.3 9 20.8 10.1 28.3 2.9l3.1-3-2.5-2.5c-8.5-8.5-12.8-28.6-12.8-60.4 0-13.3.9-42.4 1.9-59.5.1-2.8.3-5.7.3-6.6.1-1.4 4.2-1.5 36.6-1.5 35.9 0 36.5.1 36.6 2.1 3.4 62.1 3 88.8-1.7 107-1.9 7.8-5.4 15.3-8.8 18.8l-2.6 2.8 2.9 2.8c3.8 3.7 9.2 5.5 13.9 4.6 3.8-.7 10.1-3.6 12.4-5.7 5.8-5.4 5-5.6 11.1 2.5 12.7 16.9 26.8 27.3 38.6 28.5 10.1.9 21.4-5 29.1-15.2l4.2-5.6-1.2-5.2c-1.4-6.2-5.3-13.3-8-14.8-5.2-2.8-13.3.7-18.5 7.9-3.7 5.1-5.1 6.1-9 6.1-3 0-7.8-6.1-11-13.9-4-9.7-9.8-32.2-12.1-46.7-.3-2-.8-4.6-1-5.8-.2-1.1-.7-4.1-1-6.6-.3-2.5-.8-5.3-1-6.4-.2-1-.6-4.4-.9-7.5-.4-3.1-.8-6.3-1-7.1-.2-.8-.7-4.4-1-8-.3-3.6-.8-8.1-1-10-2.3-18.4-3.5-46.1-3.9-90.3-.2-17.5-.5-31.9-.7-32.1-3-2.2-27-11.6-29.7-11.6-1.2 0-1.4 3.1-.8 22.2z"/></svg>